<svg width="472" height="106" viewBox="0 0 472 106" fill="none" xmlns="http://www.w3.org/2000/svg">
<rect y="0.5" width="220" height="44" rx="5" fill="black"/>
<path d="M22 14.5H38V26.5H23.17L22 27.67V14.5ZM22 12.5C20.9 12.5 20.01 13.4 20.01 14.5L20 32.5L24 28.5H38C39.1 28.5 40 27.6 40 26.5V14.5C40 13.4 39.1 12.5 38 12.5H22ZM24 22.5H36V24.5H24V22.5ZM24 19.5H36V21.5H24V19.5ZM24 16.5H36V18.5H24V16.5Z" fill="white"/>
<path d="M61.136 17.332L57.04 28.5H54.32L50.224 17.332H52.624L55.696 26.212L58.752 17.332H61.136ZM64.719 17.332V28.5H62.479V17.332H64.719ZM73.7801 26.372H69.3321L68.5961 28.5H66.2441L70.2601 17.316H72.8681L76.8841 28.5H74.5161L73.7801 26.372ZM73.1721 24.58L71.5561 19.908L69.9401 24.58H73.1721ZM86.0538 28.612C85.2751 28.612 84.5711 28.4787 83.9418 28.212C83.3231 27.9453 82.8324 27.5613 82.4698 27.06C82.1071 26.5587 81.9204 25.9667 81.9098 25.284H84.3098C84.3418 25.7427 84.5018 26.1053 84.7898 26.372C85.0884 26.6387 85.4938 26.772 86.0058 26.772C86.5284 26.772 86.9391 26.6493 87.2378 26.404C87.5364 26.148 87.6858 25.8173 87.6858 25.412C87.6858 25.0813 87.5844 24.8093 87.3818 24.596C87.1791 24.3827 86.9231 24.2173 86.6138 24.1C86.3151 23.972 85.8991 23.8333 85.3658 23.684C84.6404 23.4707 84.0484 23.2627 83.5898 23.06C83.1418 22.8467 82.7524 22.532 82.4218 22.116C82.1018 21.6893 81.9418 21.124 81.9418 20.42C81.9418 19.7587 82.1071 19.1827 82.4378 18.692C82.7684 18.2013 83.2324 17.828 83.8298 17.572C84.4271 17.3053 85.1098 17.172 85.8778 17.172C87.0298 17.172 87.9631 17.4547 88.6778 18.02C89.4031 18.5747 89.8031 19.3533 89.8778 20.356H87.4138C87.3924 19.972 87.2271 19.6573 86.9178 19.412C86.6191 19.156 86.2191 19.028 85.7178 19.028C85.2804 19.028 84.9284 19.14 84.6618 19.364C84.4058 19.588 84.2778 19.9133 84.2778 20.34C84.2778 20.6387 84.3738 20.8893 84.5658 21.092C84.7684 21.284 85.0138 21.444 85.3018 21.572C85.6004 21.6893 86.0164 21.828 86.5498 21.988C87.2751 22.2013 87.8671 22.4147 88.3258 22.628C88.7844 22.8413 89.1791 23.1613 89.5098 23.588C89.8404 24.0147 90.0058 24.5747 90.0058 25.268C90.0058 25.8653 89.8511 26.42 89.5417 26.932C89.2324 27.444 88.7791 27.8547 88.1818 28.164C87.5844 28.4627 86.8751 28.612 86.0538 28.612ZM94.1558 17.332V24.244C94.1558 25.0013 94.3531 25.5827 94.7478 25.988C95.1424 26.3827 95.6971 26.58 96.4118 26.58C97.1371 26.58 97.6971 26.3827 98.0918 25.988C98.4864 25.5827 98.6838 25.0013 98.6838 24.244V17.332H100.94V24.228C100.94 25.1773 100.732 25.9827 100.316 26.644C99.9104 27.2947 99.3611 27.7853 98.6678 28.116C97.9851 28.4467 97.2224 28.612 96.3798 28.612C95.5478 28.612 94.7904 28.4467 94.1078 28.116C93.4358 27.7853 92.9024 27.2947 92.5078 26.644C92.1131 25.9827 91.9158 25.1773 91.9158 24.228V17.332H94.1558ZM111.248 20.788C111.248 21.3853 111.104 21.9453 110.816 22.468C110.539 22.9907 110.096 23.412 109.488 23.732C108.891 24.052 108.133 24.212 107.216 24.212H105.344V28.5H103.104V17.332H107.216C108.08 17.332 108.816 17.4813 109.424 17.78C110.032 18.0787 110.485 18.4893 110.784 19.012C111.093 19.5347 111.248 20.1267 111.248 20.788ZM107.12 22.404C107.739 22.404 108.197 22.2653 108.496 21.988C108.795 21.7 108.944 21.3 108.944 20.788C108.944 19.7 108.336 19.156 107.12 19.156H105.344V22.404H107.12ZM120.982 20.788C120.982 21.3853 120.838 21.9453 120.55 22.468C120.273 22.9907 119.83 23.412 119.222 23.732C118.625 24.052 117.868 24.212 116.95 24.212H115.078V28.5H112.838V17.332H116.95C117.814 17.332 118.55 17.4813 119.158 17.78C119.766 18.0787 120.22 18.4893 120.518 19.012C120.828 19.5347 120.982 20.1267 120.982 20.788ZM116.854 22.404C117.473 22.404 117.932 22.2653 118.23 21.988C118.529 21.7 118.678 21.3 118.678 20.788C118.678 19.7 118.07 19.156 116.854 19.156H115.078V22.404H116.854ZM127.757 28.612C126.711 28.612 125.751 28.3667 124.877 27.876C124.002 27.3853 123.309 26.708 122.797 25.844C122.285 24.9693 122.029 23.9827 122.029 22.884C122.029 21.796 122.285 20.82 122.797 19.956C123.309 19.0813 124.002 18.3987 124.877 17.908C125.751 17.4173 126.711 17.172 127.757 17.172C128.813 17.172 129.773 17.4173 130.637 17.908C131.511 18.3987 132.199 19.0813 132.701 19.956C133.213 20.82 133.469 21.796 133.469 22.884C133.469 23.9827 133.213 24.9693 132.701 25.844C132.199 26.708 131.511 27.3853 130.637 27.876C129.762 28.3667 128.802 28.612 127.757 28.612ZM127.757 26.612C128.429 26.612 129.021 26.4627 129.533 26.164C130.045 25.8547 130.445 25.4173 130.733 24.852C131.021 24.2867 131.165 23.6307 131.165 22.884C131.165 22.1373 131.021 21.4867 130.733 20.932C130.445 20.3667 130.045 19.9347 129.533 19.636C129.021 19.3373 128.429 19.188 127.757 19.188C127.085 19.188 126.487 19.3373 125.965 19.636C125.453 19.9347 125.053 20.3667 124.765 20.932C124.477 21.4867 124.333 22.1373 124.333 22.884C124.333 23.6307 124.477 24.2867 124.765 24.852C125.053 25.4173 125.453 25.8547 125.965 26.164C126.487 26.4627 127.085 26.612 127.757 26.612ZM140.895 28.5L138.431 24.148H137.375V28.5H135.135V17.332H139.327C140.191 17.332 140.927 17.4867 141.535 17.796C142.143 18.0947 142.597 18.5053 142.895 19.028C143.205 19.54 143.359 20.116 143.359 20.756C143.359 21.492 143.146 22.1587 142.719 22.756C142.293 23.3427 141.658 23.748 140.815 23.972L143.487 28.5H140.895ZM137.375 22.468H139.247C139.855 22.468 140.309 22.324 140.607 22.036C140.906 21.7373 141.055 21.3267 141.055 20.804C141.055 20.292 140.906 19.8973 140.607 19.62C140.309 19.332 139.855 19.188 139.247 19.188H137.375V22.468ZM152.985 17.332V19.14H150.009V28.5H147.769V19.14H144.793V17.332H152.985ZM157.888 22.9C157.888 21.8013 158.133 20.82 158.624 19.956C159.125 19.0813 159.803 18.404 160.656 17.924C161.52 17.4333 162.485 17.188 163.552 17.188C164.8 17.188 165.893 17.508 166.832 18.148C167.771 18.788 168.427 19.6733 168.8 20.804H166.224C165.968 20.2707 165.605 19.8707 165.136 19.604C164.677 19.3373 164.144 19.204 163.536 19.204C162.885 19.204 162.304 19.3587 161.792 19.668C161.291 19.9667 160.896 20.3933 160.608 20.948C160.331 21.5027 160.192 22.1533 160.192 22.9C160.192 23.636 160.331 24.2867 160.608 24.852C160.896 25.4067 161.291 25.8387 161.792 26.148C162.304 26.4467 162.885 26.596 163.536 26.596C164.144 26.596 164.677 26.4627 165.136 26.196C165.605 25.9187 165.968 25.5133 166.224 24.98H168.8C168.427 26.1213 167.771 27.012 166.832 27.652C165.904 28.2813 164.811 28.596 163.552 28.596C162.485 28.596 161.52 28.356 160.656 27.876C159.803 27.3853 159.125 26.708 158.624 25.844C158.133 24.98 157.888 23.9987 157.888 22.9ZM179.977 17.332V28.5H177.737V23.748H172.953V28.5H170.713V17.332H172.953V21.924H177.737V17.332H179.977ZM189.03 26.372H184.582L183.846 28.5H181.494L185.51 17.316H188.118L192.134 28.5H189.766L189.03 26.372ZM188.422 24.58L186.806 19.908L185.19 24.58H188.422ZM201.235 17.332V19.14H198.259V28.5H196.019V19.14H193.043V17.332H201.235Z" fill="white"/>
<rect x="252" y="0.5" width="220" height="44" rx="5" fill="black"/>
<path d="M317.62 21.29C319.06 24.12 321.38 26.43 324.21 27.88L326.41 25.68C326.68 25.41 327.08 25.32 327.43 25.44C328.55 25.81 329.76 26.01 331 26.01C331.55 26.01 332 26.46 332 27.01V30.5C332 31.05 331.55 31.5 331 31.5C321.61 31.5 314 23.89 314 14.5C314 13.95 314.45 13.5 315 13.5H318.5C319.05 13.5 319.5 13.95 319.5 14.5C319.5 15.75 319.7 16.95 320.07 18.07C320.18 18.42 320.1 18.81 319.82 19.09L317.62 21.29Z" fill="white"/>
<path d="M354.136 17.332L350.04 28.5H347.32L343.224 17.332H345.624L348.696 26.212L351.752 17.332H354.136ZM357.719 17.332V28.5H355.479V17.332H357.719ZM366.78 26.372H362.332L361.596 28.5H359.244L363.26 17.316H365.868L369.884 28.5H367.516L366.78 26.372ZM366.172 24.58L364.556 19.908L362.94 24.58H366.172ZM374.654 22.9C374.654 21.8013 374.899 20.82 375.39 19.956C375.891 19.0813 376.568 18.404 377.422 17.924C378.286 17.4333 379.251 17.188 380.318 17.188C381.566 17.188 382.659 17.508 383.598 18.148C384.536 18.788 385.192 19.6733 385.566 20.804H382.99C382.734 20.2707 382.371 19.8707 381.902 19.604C381.443 19.3373 380.91 19.204 380.302 19.204C379.651 19.204 379.07 19.3587 378.558 19.668C378.056 19.9667 377.662 20.3933 377.374 20.948C377.096 21.5027 376.958 22.1533 376.958 22.9C376.958 23.636 377.096 24.2867 377.374 24.852C377.662 25.4067 378.056 25.8387 378.558 26.148C379.07 26.4467 379.651 26.596 380.302 26.596C380.91 26.596 381.443 26.4627 381.902 26.196C382.371 25.9187 382.734 25.5133 382.99 24.98H385.566C385.192 26.1213 384.536 27.012 383.598 27.652C382.67 28.2813 381.576 28.596 380.318 28.596C379.251 28.596 378.286 28.356 377.422 27.876C376.568 27.3853 375.891 26.708 375.39 25.844C374.899 24.98 374.654 23.9987 374.654 22.9ZM394.327 26.372H389.879L389.143 28.5H386.791L390.807 17.316H393.415L397.431 28.5H395.063L394.327 26.372ZM393.719 24.58L392.103 19.908L390.487 24.58H393.719ZM401.172 26.724H404.852V28.5H398.932V17.332H401.172V26.724ZM408.516 26.724H412.196V28.5H406.276V17.332H408.516V26.724Z" fill="white"/>
<rect x="0.5" y="62" width="471" height="43" rx="4.5" fill="white"/>
<rect x="0.5" y="62" width="471" height="43" rx="4.5" stroke="black"/>
<path d="M160.5 75.5H176.5V87.5H161.67L160.5 88.67V75.5ZM160.5 73.5C159.4 73.5 158.51 74.4 158.51 75.5L158.5 93.5L162.5 89.5H176.5C177.6 89.5 178.5 88.6 178.5 87.5V75.5C178.5 74.4 177.6 73.5 176.5 73.5H160.5ZM162.5 83.5H174.5V85.5H162.5V83.5ZM162.5 80.5H174.5V82.5H162.5V80.5ZM162.5 77.5H174.5V79.5H162.5V77.5Z" fill="black"/>
<path d="M199.636 78.332L195.54 89.5H192.82L188.724 78.332H191.124L194.196 87.212L197.252 78.332H199.636ZM203.219 78.332V89.5H200.979V78.332H203.219ZM212.28 87.372H207.832L207.096 89.5H204.744L208.76 78.316H211.368L215.384 89.5H213.016L212.28 87.372ZM211.672 85.58L210.056 80.908L208.44 85.58H211.672ZM222.938 80.14V82.94H226.698V84.716H222.938V87.676H227.178V89.5H220.698V78.316H227.178V80.14H222.938ZM241.389 78.332V89.5H239.149V82.236L236.157 89.5H234.461L231.453 82.236V89.5H229.213V78.332H231.757L235.309 86.636L238.861 78.332H241.389ZM250.452 87.372H246.004L245.268 89.5H242.916L246.932 78.316H249.54L253.556 89.5H251.188L250.452 87.372ZM249.844 85.58L248.228 80.908L246.612 85.58H249.844ZM257.297 78.332V89.5H255.057V78.332H257.297ZM261.75 87.724H265.43V89.5H259.51V78.332H261.75V87.724ZM277.562 78.332V80.14H272.907V83.004H276.475V84.78H272.907V89.5H270.667V78.332H277.562ZM284.335 89.612C283.29 89.612 282.33 89.3667 281.455 88.876C280.58 88.3853 279.887 87.708 279.375 86.844C278.863 85.9693 278.607 84.9827 278.607 83.884C278.607 82.796 278.863 81.82 279.375 80.956C279.887 80.0813 280.58 79.3987 281.455 78.908C282.33 78.4173 283.29 78.172 284.335 78.172C285.391 78.172 286.351 78.4173 287.215 78.908C288.09 79.3987 288.778 80.0813 289.279 80.956C289.791 81.82 290.047 82.796 290.047 83.884C290.047 84.9827 289.791 85.9693 289.279 86.844C288.778 87.708 288.09 88.3853 287.215 88.876C286.34 89.3667 285.38 89.612 284.335 89.612ZM284.335 87.612C285.007 87.612 285.599 87.4627 286.111 87.164C286.623 86.8547 287.023 86.4173 287.311 85.852C287.599 85.2867 287.743 84.6307 287.743 83.884C287.743 83.1373 287.599 82.4867 287.311 81.932C287.023 81.3667 286.623 80.9347 286.111 80.636C285.599 80.3373 285.007 80.188 284.335 80.188C283.663 80.188 283.066 80.3373 282.543 80.636C282.031 80.9347 281.631 81.3667 281.343 81.932C281.055 82.4867 280.911 83.1373 280.911 83.884C280.911 84.6307 281.055 85.2867 281.343 85.852C281.631 86.4173 282.031 86.8547 282.543 87.164C283.066 87.4627 283.663 87.612 284.335 87.612ZM297.473 89.5L295.009 85.148H293.953V89.5H291.713V78.332H295.905C296.769 78.332 297.505 78.4867 298.113 78.796C298.721 79.0947 299.175 79.5053 299.473 80.028C299.783 80.54 299.937 81.116 299.937 81.756C299.937 82.492 299.724 83.1587 299.297 83.756C298.871 84.3427 298.236 84.748 297.393 84.972L300.065 89.5H297.473ZM293.953 83.468H295.825C296.433 83.468 296.887 83.324 297.185 83.036C297.484 82.7373 297.633 82.3267 297.633 81.804C297.633 81.292 297.484 80.8973 297.185 80.62C296.887 80.332 296.433 80.188 295.825 80.188H293.953V83.468ZM314.139 78.332V89.5H311.899V82.236L308.907 89.5H307.211L304.203 82.236V89.5H301.963V78.332H304.507L308.059 86.636L311.611 78.332H314.139Z" fill="black"/>
</svg>
